<svg width="27" height="27" viewBox="0 0 27 27" fill="none" xmlns="http://www.w3.org/2000/svg">
<path d="M25.6753 25.6751L19.7037 19.7035M19.7037 19.7035C20.7252 18.682 21.5355 17.4693 22.0883 16.1347C22.6411 14.8001 22.9256 13.3697 22.9256 11.9251C22.9256 10.4805 22.6411 9.05008 22.0883 7.71546C21.5355 6.38085 20.7252 5.16818 19.7037 4.14671C18.6822 3.12524 17.4696 2.31497 16.135 1.76215C14.8003 1.20934 13.3699 0.924805 11.9253 0.924805C10.4808 0.924805 9.05032 1.20934 7.71571 1.76215C6.38109 2.31497 5.16843 3.12524 4.14696 4.14671C2.084 6.20967 0.925049 9.00763 0.925049 11.9251C0.925049 14.8425 2.084 17.6405 4.14696 19.7035C6.20991 21.7664 9.00788 22.9254 11.9253 22.9254C14.8428 22.9254 17.6408 21.7664 19.7037 19.7035Z" stroke="white" stroke-width="1.85" stroke-linecap="round" stroke-linejoin="round"/>
</svg>
